<mxfile host="Electron" modified="2024-01-17T16:49:15.135Z" agent="Mozilla/5.0 (Windows NT 10.0; Win64; x64) AppleWebKit/537.36 (KHTML, like Gecko) draw.io/22.1.16 Chrome/120.0.6099.109 Electron/28.1.0 Safari/537.36" etag="mzR0kKU3v2UhCazuRv_s" version="22.1.16" type="device">
  <diagram name="Page-1" id="I428ZMt2U0EythVlZh_k">
    <mxGraphModel dx="2140" dy="1721" grid="1" gridSize="10" guides="1" tooltips="1" connect="1" arrows="1" fold="1" page="1" pageScale="1" pageWidth="850" pageHeight="1100" math="0" shadow="0">
      <root>
        <mxCell id="0" />
        <mxCell id="1" parent="0" />
        <mxCell id="ZoVuuaztXTIgdqJoZ6yN-1" value="Users" style="whiteSpace=wrap;html=1;align=center;fillColor=#f8cecc;strokeColor=#b85450;" parent="1" vertex="1">
          <mxGeometry x="120" y="160" width="100" height="40" as="geometry" />
        </mxCell>
        <mxCell id="ZoVuuaztXTIgdqJoZ6yN-2" value="Members" style="whiteSpace=wrap;html=1;align=center;fillColor=#f8cecc;strokeColor=#b85450;" parent="1" vertex="1">
          <mxGeometry x="590" y="160" width="100" height="40" as="geometry" />
        </mxCell>
        <mxCell id="ZoVuuaztXTIgdqJoZ6yN-3" value="Encode" style="shape=rhombus;perimeter=rhombusPerimeter;whiteSpace=wrap;html=1;align=center;fillColor=#d5e8d4;strokeColor=#82b366;" parent="1" vertex="1">
          <mxGeometry x="350" y="150" width="120" height="60" as="geometry" />
        </mxCell>
        <mxCell id="ZoVuuaztXTIgdqJoZ6yN-4" value="" style="endArrow=none;html=1;rounded=0;exitX=1;exitY=0.5;exitDx=0;exitDy=0;entryX=0;entryY=0.5;entryDx=0;entryDy=0;" parent="1" source="ZoVuuaztXTIgdqJoZ6yN-1" target="ZoVuuaztXTIgdqJoZ6yN-3" edge="1">
          <mxGeometry relative="1" as="geometry">
            <mxPoint x="300" y="300" as="sourcePoint" />
            <mxPoint x="460" y="300" as="targetPoint" />
          </mxGeometry>
        </mxCell>
        <mxCell id="ZoVuuaztXTIgdqJoZ6yN-5" value="" style="endArrow=none;html=1;rounded=0;exitX=1;exitY=0.5;exitDx=0;exitDy=0;" parent="1" source="ZoVuuaztXTIgdqJoZ6yN-3" target="ZoVuuaztXTIgdqJoZ6yN-2" edge="1">
          <mxGeometry relative="1" as="geometry">
            <mxPoint x="230" y="190" as="sourcePoint" />
            <mxPoint x="360" y="190" as="targetPoint" />
          </mxGeometry>
        </mxCell>
        <mxCell id="ZoVuuaztXTIgdqJoZ6yN-6" value="" style="endArrow=none;html=1;rounded=0;entryX=0.131;entryY=0.374;entryDx=0;entryDy=0;entryPerimeter=0;" parent="1" target="ZoVuuaztXTIgdqJoZ6yN-3" edge="1">
          <mxGeometry relative="1" as="geometry">
            <mxPoint x="220" y="170" as="sourcePoint" />
            <mxPoint x="360" y="170" as="targetPoint" />
          </mxGeometry>
        </mxCell>
        <mxCell id="ZoVuuaztXTIgdqJoZ6yN-7" value="" style="endArrow=none;html=1;rounded=0;exitX=0.922;exitY=0.383;exitDx=0;exitDy=0;exitPerimeter=0;entryX=0;entryY=0.25;entryDx=0;entryDy=0;" parent="1" source="ZoVuuaztXTIgdqJoZ6yN-3" target="ZoVuuaztXTIgdqJoZ6yN-2" edge="1">
          <mxGeometry relative="1" as="geometry">
            <mxPoint x="390" y="300" as="sourcePoint" />
            <mxPoint x="550" y="300" as="targetPoint" />
          </mxGeometry>
        </mxCell>
        <mxCell id="ZoVuuaztXTIgdqJoZ6yN-8" value="1" style="text;html=1;align=center;verticalAlign=middle;resizable=0;points=[];autosize=1;strokeColor=none;fillColor=none;" parent="1" vertex="1">
          <mxGeometry x="240" y="140" width="30" height="30" as="geometry" />
        </mxCell>
        <mxCell id="ZoVuuaztXTIgdqJoZ6yN-10" value="M" style="text;html=1;align=center;verticalAlign=middle;resizable=0;points=[];autosize=1;strokeColor=none;fillColor=none;" parent="1" vertex="1">
          <mxGeometry x="551" y="143" width="30" height="30" as="geometry" />
        </mxCell>
        <mxCell id="ZoVuuaztXTIgdqJoZ6yN-11" value="Coaches" style="whiteSpace=wrap;html=1;align=center;fillColor=#f8cecc;strokeColor=#b85450;" parent="1" vertex="1">
          <mxGeometry x="120" y="480" width="100" height="40" as="geometry" />
        </mxCell>
        <mxCell id="ZoVuuaztXTIgdqJoZ6yN-12" value="Encode" style="shape=rhombus;perimeter=rhombusPerimeter;whiteSpace=wrap;html=1;align=center;fillColor=#d5e8d4;strokeColor=#82b366;" parent="1" vertex="1">
          <mxGeometry x="110" y="310" width="120" height="60" as="geometry" />
        </mxCell>
        <mxCell id="ZoVuuaztXTIgdqJoZ6yN-13" value="" style="endArrow=none;html=1;rounded=0;exitX=0.5;exitY=1;exitDx=0;exitDy=0;entryX=0.5;entryY=0;entryDx=0;entryDy=0;" parent="1" source="ZoVuuaztXTIgdqJoZ6yN-1" target="ZoVuuaztXTIgdqJoZ6yN-12" edge="1">
          <mxGeometry relative="1" as="geometry">
            <mxPoint x="230" y="190" as="sourcePoint" />
            <mxPoint x="360" y="190" as="targetPoint" />
          </mxGeometry>
        </mxCell>
        <mxCell id="ZoVuuaztXTIgdqJoZ6yN-14" value="" style="endArrow=none;html=1;rounded=0;exitX=0.5;exitY=1;exitDx=0;exitDy=0;entryX=0.5;entryY=0;entryDx=0;entryDy=0;" parent="1" source="ZoVuuaztXTIgdqJoZ6yN-12" target="ZoVuuaztXTIgdqJoZ6yN-11" edge="1">
          <mxGeometry relative="1" as="geometry">
            <mxPoint x="230" y="190" as="sourcePoint" />
            <mxPoint x="360" y="190" as="targetPoint" />
          </mxGeometry>
        </mxCell>
        <mxCell id="ZoVuuaztXTIgdqJoZ6yN-15" value="" style="endArrow=none;html=1;rounded=0;exitX=0.443;exitY=1.083;exitDx=0;exitDy=0;entryX=0.453;entryY=0.089;entryDx=0;entryDy=0;exitPerimeter=0;entryPerimeter=0;" parent="1" edge="1">
          <mxGeometry relative="1" as="geometry">
            <mxPoint x="164.29999999999995" y="200.32000000000005" as="sourcePoint" />
            <mxPoint x="164.36000000000013" y="312.3399999999999" as="targetPoint" />
          </mxGeometry>
        </mxCell>
        <mxCell id="ZoVuuaztXTIgdqJoZ6yN-16" value="" style="endArrow=none;html=1;rounded=0;exitX=0.434;exitY=0.944;exitDx=0;exitDy=0;entryX=0.438;entryY=-0.034;entryDx=0;entryDy=0;exitPerimeter=0;entryPerimeter=0;" parent="1" source="ZoVuuaztXTIgdqJoZ6yN-12" target="ZoVuuaztXTIgdqJoZ6yN-11" edge="1">
          <mxGeometry relative="1" as="geometry">
            <mxPoint x="174.29999999999995" y="210.32000000000005" as="sourcePoint" />
            <mxPoint x="174.36000000000013" y="322.3399999999999" as="targetPoint" />
          </mxGeometry>
        </mxCell>
        <mxCell id="ZoVuuaztXTIgdqJoZ6yN-17" value="1" style="text;html=1;align=center;verticalAlign=middle;resizable=0;points=[];autosize=1;strokeColor=none;fillColor=none;" parent="1" vertex="1">
          <mxGeometry x="140" y="200" width="30" height="30" as="geometry" />
        </mxCell>
        <mxCell id="ZoVuuaztXTIgdqJoZ6yN-18" value="M" style="text;html=1;align=center;verticalAlign=middle;resizable=0;points=[];autosize=1;strokeColor=none;fillColor=none;" parent="1" vertex="1">
          <mxGeometry x="140" y="450" width="30" height="30" as="geometry" />
        </mxCell>
        <mxCell id="ZoVuuaztXTIgdqJoZ6yN-19" value="Memberships" style="whiteSpace=wrap;html=1;align=center;fillColor=#f8cecc;strokeColor=#b85450;" parent="1" vertex="1">
          <mxGeometry x="590" y="480" width="100" height="40" as="geometry" />
        </mxCell>
        <mxCell id="ZoVuuaztXTIgdqJoZ6yN-20" value="Encode" style="shape=rhombus;perimeter=rhombusPerimeter;whiteSpace=wrap;html=1;align=center;fillColor=#d5e8d4;strokeColor=#82b366;" parent="1" vertex="1">
          <mxGeometry x="350" y="320" width="120" height="60" as="geometry" />
        </mxCell>
        <mxCell id="ZoVuuaztXTIgdqJoZ6yN-21" value="" style="endArrow=none;html=1;rounded=0;exitX=1;exitY=1;exitDx=0;exitDy=0;entryX=0.5;entryY=0;entryDx=0;entryDy=0;" parent="1" source="ZoVuuaztXTIgdqJoZ6yN-1" target="ZoVuuaztXTIgdqJoZ6yN-20" edge="1">
          <mxGeometry relative="1" as="geometry">
            <mxPoint x="180" y="210" as="sourcePoint" />
            <mxPoint x="180" y="320" as="targetPoint" />
          </mxGeometry>
        </mxCell>
        <mxCell id="ZoVuuaztXTIgdqJoZ6yN-22" value="" style="endArrow=none;html=1;rounded=0;exitX=0;exitY=0;exitDx=0;exitDy=0;entryX=0.5;entryY=1;entryDx=0;entryDy=0;" parent="1" source="ZoVuuaztXTIgdqJoZ6yN-19" target="ZoVuuaztXTIgdqJoZ6yN-20" edge="1">
          <mxGeometry relative="1" as="geometry">
            <mxPoint x="230" y="210" as="sourcePoint" />
            <mxPoint x="420" y="330" as="targetPoint" />
          </mxGeometry>
        </mxCell>
        <mxCell id="ZoVuuaztXTIgdqJoZ6yN-23" value="" style="endArrow=none;html=1;rounded=0;exitX=0.912;exitY=1.041;exitDx=0;exitDy=0;entryX=0.453;entryY=0.078;entryDx=0;entryDy=0;exitPerimeter=0;entryPerimeter=0;" parent="1" edge="1">
          <mxGeometry relative="1" as="geometry">
            <mxPoint x="210.20000000000005" y="200.6400000000001" as="sourcePoint" />
            <mxPoint x="403.3600000000001" y="323.67999999999995" as="targetPoint" />
          </mxGeometry>
        </mxCell>
        <mxCell id="ZoVuuaztXTIgdqJoZ6yN-24" value="" style="endArrow=none;html=1;rounded=0;exitX=0.577;exitY=0.979;exitDx=0;exitDy=0;entryX=0.086;entryY=-0.021;entryDx=0;entryDy=0;exitPerimeter=0;entryPerimeter=0;" parent="1" source="ZoVuuaztXTIgdqJoZ6yN-20" target="ZoVuuaztXTIgdqJoZ6yN-19" edge="1">
          <mxGeometry relative="1" as="geometry">
            <mxPoint x="220.20000000000005" y="210.6400000000001" as="sourcePoint" />
            <mxPoint x="413.3600000000001" y="333.67999999999995" as="targetPoint" />
          </mxGeometry>
        </mxCell>
        <mxCell id="ZoVuuaztXTIgdqJoZ6yN-25" value="1" style="text;html=1;align=center;verticalAlign=middle;resizable=0;points=[];autosize=1;strokeColor=none;fillColor=none;" parent="1" vertex="1">
          <mxGeometry x="210" y="180" width="30" height="30" as="geometry" />
        </mxCell>
        <mxCell id="ZoVuuaztXTIgdqJoZ6yN-26" value="M" style="text;html=1;align=center;verticalAlign=middle;resizable=0;points=[];autosize=1;strokeColor=none;fillColor=none;" parent="1" vertex="1">
          <mxGeometry x="580" y="450" width="30" height="30" as="geometry" />
        </mxCell>
        <mxCell id="ZoVuuaztXTIgdqJoZ6yN-27" value="Payments" style="whiteSpace=wrap;html=1;align=center;fillColor=#f8cecc;strokeColor=#b85450;" parent="1" vertex="1">
          <mxGeometry x="590" y="-90" width="100" height="40" as="geometry" />
        </mxCell>
        <mxCell id="ZoVuuaztXTIgdqJoZ6yN-28" value="Process" style="shape=rhombus;perimeter=rhombusPerimeter;whiteSpace=wrap;html=1;align=center;fillColor=#d5e8d4;strokeColor=#82b366;" parent="1" vertex="1">
          <mxGeometry x="350" y="-30" width="120" height="60" as="geometry" />
        </mxCell>
        <mxCell id="ZoVuuaztXTIgdqJoZ6yN-29" value="" style="endArrow=none;html=1;rounded=0;exitX=0.069;exitY=0.569;exitDx=0;exitDy=0;entryX=1;entryY=0;entryDx=0;entryDy=0;exitPerimeter=0;" parent="1" source="ZoVuuaztXTIgdqJoZ6yN-28" target="ZoVuuaztXTIgdqJoZ6yN-1" edge="1">
          <mxGeometry relative="1" as="geometry">
            <mxPoint x="-90" y="230" as="sourcePoint" />
            <mxPoint x="70" y="230" as="targetPoint" />
          </mxGeometry>
        </mxCell>
        <mxCell id="ZoVuuaztXTIgdqJoZ6yN-30" value="" style="endArrow=none;html=1;rounded=0;exitX=0;exitY=1;exitDx=0;exitDy=0;entryX=1;entryY=0.5;entryDx=0;entryDy=0;" parent="1" source="ZoVuuaztXTIgdqJoZ6yN-27" target="ZoVuuaztXTIgdqJoZ6yN-28" edge="1">
          <mxGeometry relative="1" as="geometry">
            <mxPoint x="-30" y="190" as="sourcePoint" />
            <mxPoint x="130" y="190" as="targetPoint" />
          </mxGeometry>
        </mxCell>
        <mxCell id="ZoVuuaztXTIgdqJoZ6yN-31" value="" style="endArrow=none;html=1;rounded=0;entryX=0.936;entryY=0.425;entryDx=0;entryDy=0;entryPerimeter=0;" parent="1" target="ZoVuuaztXTIgdqJoZ6yN-28" edge="1">
          <mxGeometry relative="1" as="geometry">
            <mxPoint x="590" y="-60" as="sourcePoint" />
            <mxPoint x="-148.76000000000022" y="174.06000000000006" as="targetPoint" />
          </mxGeometry>
        </mxCell>
        <mxCell id="ZoVuuaztXTIgdqJoZ6yN-32" value="" style="endArrow=none;html=1;rounded=0;exitX=0;exitY=0.5;exitDx=0;exitDy=0;entryX=0.877;entryY=-0.013;entryDx=0;entryDy=0;entryPerimeter=0;" parent="1" source="ZoVuuaztXTIgdqJoZ6yN-28" target="ZoVuuaztXTIgdqJoZ6yN-1" edge="1">
          <mxGeometry relative="1" as="geometry">
            <mxPoint x="-290" y="180" as="sourcePoint" />
            <mxPoint x="-138.76000000000022" y="184.06000000000006" as="targetPoint" />
          </mxGeometry>
        </mxCell>
        <mxCell id="ZoVuuaztXTIgdqJoZ6yN-33" value="1" style="text;html=1;align=center;verticalAlign=middle;resizable=0;points=[];autosize=1;strokeColor=none;fillColor=none;" parent="1" vertex="1">
          <mxGeometry x="190" y="130" width="30" height="30" as="geometry" />
        </mxCell>
        <mxCell id="ZoVuuaztXTIgdqJoZ6yN-34" value="M" style="text;html=1;align=center;verticalAlign=middle;resizable=0;points=[];autosize=1;strokeColor=none;fillColor=none;" parent="1" vertex="1">
          <mxGeometry x="560" y="-85" width="30" height="30" as="geometry" />
        </mxCell>
        <mxCell id="ZoVuuaztXTIgdqJoZ6yN-43" value="Belong&lt;br&gt;To" style="shape=rhombus;perimeter=rhombusPerimeter;whiteSpace=wrap;html=1;align=center;fillColor=#d5e8d4;strokeColor=#82b366;" parent="1" vertex="1">
          <mxGeometry x="580" y="300" width="120" height="60" as="geometry" />
        </mxCell>
        <mxCell id="ZoVuuaztXTIgdqJoZ6yN-44" value="" style="endArrow=none;html=1;rounded=0;entryX=0.5;entryY=1;entryDx=0;entryDy=0;exitX=0.5;exitY=0;exitDx=0;exitDy=0;" parent="1" source="ZoVuuaztXTIgdqJoZ6yN-43" target="ZoVuuaztXTIgdqJoZ6yN-2" edge="1">
          <mxGeometry relative="1" as="geometry">
            <mxPoint x="450" y="300" as="sourcePoint" />
            <mxPoint x="610" y="300" as="targetPoint" />
          </mxGeometry>
        </mxCell>
        <mxCell id="ZoVuuaztXTIgdqJoZ6yN-45" value="" style="endArrow=none;html=1;rounded=0;entryX=0.5;entryY=1;entryDx=0;entryDy=0;exitX=0.5;exitY=0;exitDx=0;exitDy=0;" parent="1" source="ZoVuuaztXTIgdqJoZ6yN-19" target="ZoVuuaztXTIgdqJoZ6yN-43" edge="1">
          <mxGeometry relative="1" as="geometry">
            <mxPoint x="650" y="310" as="sourcePoint" />
            <mxPoint x="650" y="210" as="targetPoint" />
          </mxGeometry>
        </mxCell>
        <mxCell id="ZoVuuaztXTIgdqJoZ6yN-46" value="" style="endArrow=none;html=1;rounded=0;entryX=0.562;entryY=1.031;entryDx=0;entryDy=0;exitX=0.552;exitY=0.037;exitDx=0;exitDy=0;entryPerimeter=0;exitPerimeter=0;" parent="1" source="ZoVuuaztXTIgdqJoZ6yN-43" target="ZoVuuaztXTIgdqJoZ6yN-2" edge="1">
          <mxGeometry relative="1" as="geometry">
            <mxPoint x="650" y="310" as="sourcePoint" />
            <mxPoint x="650" y="210" as="targetPoint" />
          </mxGeometry>
        </mxCell>
        <mxCell id="ZoVuuaztXTIgdqJoZ6yN-47" value="M" style="text;html=1;align=center;verticalAlign=middle;resizable=0;points=[];autosize=1;strokeColor=none;fillColor=none;" parent="1" vertex="1">
          <mxGeometry x="610" y="200" width="30" height="30" as="geometry" />
        </mxCell>
        <mxCell id="ZoVuuaztXTIgdqJoZ6yN-48" value="1" style="text;html=1;align=center;verticalAlign=middle;resizable=0;points=[];autosize=1;strokeColor=none;fillColor=none;" parent="1" vertex="1">
          <mxGeometry x="610" y="450" width="30" height="30" as="geometry" />
        </mxCell>
        <mxCell id="ZoVuuaztXTIgdqJoZ6yN-49" value="Make" style="shape=rhombus;perimeter=rhombusPerimeter;whiteSpace=wrap;html=1;align=center;fillColor=#d5e8d4;strokeColor=#82b366;" parent="1" vertex="1">
          <mxGeometry x="580" y="20" width="120" height="60" as="geometry" />
        </mxCell>
        <mxCell id="ZoVuuaztXTIgdqJoZ6yN-50" value="" style="endArrow=none;html=1;rounded=0;entryX=0.5;entryY=1;entryDx=0;entryDy=0;exitX=0.5;exitY=0;exitDx=0;exitDy=0;" parent="1" source="ZoVuuaztXTIgdqJoZ6yN-49" target="ZoVuuaztXTIgdqJoZ6yN-27" edge="1">
          <mxGeometry relative="1" as="geometry">
            <mxPoint x="500" y="80" as="sourcePoint" />
            <mxPoint x="660" y="80" as="targetPoint" />
          </mxGeometry>
        </mxCell>
        <mxCell id="ZoVuuaztXTIgdqJoZ6yN-51" value="" style="endArrow=none;html=1;rounded=0;entryX=0.5;entryY=1;entryDx=0;entryDy=0;exitX=0.5;exitY=0;exitDx=0;exitDy=0;" parent="1" source="ZoVuuaztXTIgdqJoZ6yN-2" target="ZoVuuaztXTIgdqJoZ6yN-49" edge="1">
          <mxGeometry relative="1" as="geometry">
            <mxPoint x="650" y="30" as="sourcePoint" />
            <mxPoint x="650" y="-40" as="targetPoint" />
          </mxGeometry>
        </mxCell>
        <mxCell id="ZoVuuaztXTIgdqJoZ6yN-52" value="" style="endArrow=none;html=1;rounded=0;entryX=0.581;entryY=1.031;entryDx=0;entryDy=0;entryPerimeter=0;exitX=0.553;exitY=0.04;exitDx=0;exitDy=0;exitPerimeter=0;" parent="1" source="ZoVuuaztXTIgdqJoZ6yN-49" target="ZoVuuaztXTIgdqJoZ6yN-27" edge="1">
          <mxGeometry relative="1" as="geometry">
            <mxPoint x="648" y="20" as="sourcePoint" />
            <mxPoint x="650" y="-40" as="targetPoint" />
          </mxGeometry>
        </mxCell>
        <mxCell id="ZoVuuaztXTIgdqJoZ6yN-53" value="" style="endArrow=none;html=1;rounded=0;entryX=0.558;entryY=0.988;entryDx=0;entryDy=0;entryPerimeter=0;exitX=0.576;exitY=0.026;exitDx=0;exitDy=0;exitPerimeter=0;" parent="1" edge="1">
          <mxGeometry relative="1" as="geometry">
            <mxPoint x="647.6000000000004" y="159.03999999999996" as="sourcePoint" />
            <mxPoint x="646.9600000000003" y="77.27999999999975" as="targetPoint" />
          </mxGeometry>
        </mxCell>
        <mxCell id="ZoVuuaztXTIgdqJoZ6yN-54" value="M" style="text;html=1;align=center;verticalAlign=middle;resizable=0;points=[];autosize=1;strokeColor=none;fillColor=none;" parent="1" vertex="1">
          <mxGeometry x="610" y="-55" width="30" height="30" as="geometry" />
        </mxCell>
        <mxCell id="ZoVuuaztXTIgdqJoZ6yN-55" value="1" style="text;html=1;align=center;verticalAlign=middle;resizable=0;points=[];autosize=1;strokeColor=none;fillColor=none;" parent="1" vertex="1">
          <mxGeometry x="610" y="130" width="30" height="30" as="geometry" />
        </mxCell>
        <mxCell id="ZoVuuaztXTIgdqJoZ6yN-56" value="Enroll" style="shape=rhombus;perimeter=rhombusPerimeter;whiteSpace=wrap;html=1;align=center;fillColor=#d5e8d4;strokeColor=#82b366;" parent="1" vertex="1">
          <mxGeometry x="700" y="370" width="120" height="60" as="geometry" />
        </mxCell>
        <mxCell id="ZoVuuaztXTIgdqJoZ6yN-57" value="Program" style="whiteSpace=wrap;html=1;align=center;fillColor=#f8cecc;strokeColor=#b85450;" parent="1" vertex="1">
          <mxGeometry x="840" y="470" width="100" height="40" as="geometry" />
        </mxCell>
        <mxCell id="ZoVuuaztXTIgdqJoZ6yN-58" value="" style="endArrow=none;html=1;rounded=0;exitX=0.8;exitY=1;exitDx=0;exitDy=0;entryX=0.5;entryY=0;entryDx=0;entryDy=0;exitPerimeter=0;" parent="1" source="ZoVuuaztXTIgdqJoZ6yN-2" target="ZoVuuaztXTIgdqJoZ6yN-56" edge="1">
          <mxGeometry relative="1" as="geometry">
            <mxPoint x="480" y="190" as="sourcePoint" />
            <mxPoint x="770" y="290" as="targetPoint" />
          </mxGeometry>
        </mxCell>
        <mxCell id="ZoVuuaztXTIgdqJoZ6yN-59" value="" style="endArrow=none;html=1;rounded=0;exitX=0.5;exitY=1;exitDx=0;exitDy=0;entryX=0;entryY=0;entryDx=0;entryDy=0;" parent="1" source="ZoVuuaztXTIgdqJoZ6yN-56" target="ZoVuuaztXTIgdqJoZ6yN-57" edge="1">
          <mxGeometry relative="1" as="geometry">
            <mxPoint x="700" y="190" as="sourcePoint" />
            <mxPoint x="850" y="190" as="targetPoint" />
          </mxGeometry>
        </mxCell>
        <mxCell id="ZoVuuaztXTIgdqJoZ6yN-60" value="" style="endArrow=none;html=1;rounded=0;exitX=0.75;exitY=1;exitDx=0;exitDy=0;entryX=0.444;entryY=0.038;entryDx=0;entryDy=0;entryPerimeter=0;" parent="1" source="ZoVuuaztXTIgdqJoZ6yN-2" target="ZoVuuaztXTIgdqJoZ6yN-56" edge="1">
          <mxGeometry relative="1" as="geometry">
            <mxPoint x="700" y="190" as="sourcePoint" />
            <mxPoint x="850" y="190" as="targetPoint" />
          </mxGeometry>
        </mxCell>
        <mxCell id="ZoVuuaztXTIgdqJoZ6yN-61" value="M" style="text;html=1;align=center;verticalAlign=middle;resizable=0;points=[];autosize=1;strokeColor=none;fillColor=none;" parent="1" vertex="1">
          <mxGeometry x="840" y="445" width="30" height="30" as="geometry" />
        </mxCell>
        <mxCell id="ZoVuuaztXTIgdqJoZ6yN-62" value="M" style="text;html=1;align=center;verticalAlign=middle;resizable=0;points=[];autosize=1;strokeColor=none;fillColor=none;" parent="1" vertex="1">
          <mxGeometry x="645" y="195" width="30" height="30" as="geometry" />
        </mxCell>
        <mxCell id="ZoVuuaztXTIgdqJoZ6yN-64" value="Id" style="ellipse;whiteSpace=wrap;html=1;align=center;fontStyle=4;fillColor=#dae8fc;strokeColor=#6c8ebf;" parent="1" vertex="1">
          <mxGeometry x="-20" y="60" width="100" height="40" as="geometry" />
        </mxCell>
        <mxCell id="ZoVuuaztXTIgdqJoZ6yN-66" value="Name" style="ellipse;whiteSpace=wrap;html=1;align=center;fillColor=#dae8fc;strokeColor=#6c8ebf;" parent="1" vertex="1">
          <mxGeometry x="-20" y="110" width="100" height="40" as="geometry" />
        </mxCell>
        <mxCell id="ZoVuuaztXTIgdqJoZ6yN-67" value="Password" style="ellipse;whiteSpace=wrap;html=1;align=center;fillColor=#dae8fc;strokeColor=#6c8ebf;" parent="1" vertex="1">
          <mxGeometry x="-20" y="160" width="100" height="40" as="geometry" />
        </mxCell>
        <mxCell id="ZoVuuaztXTIgdqJoZ6yN-68" value="Phones" style="ellipse;whiteSpace=wrap;html=1;align=center;fillColor=#dae8fc;strokeColor=#6c8ebf;" parent="1" vertex="1">
          <mxGeometry x="-20" y="210" width="100" height="40" as="geometry" />
        </mxCell>
        <mxCell id="ZoVuuaztXTIgdqJoZ6yN-69" value="" style="endArrow=none;html=1;rounded=0;exitX=1;exitY=1;exitDx=0;exitDy=0;entryX=0.25;entryY=0;entryDx=0;entryDy=0;" parent="1" source="ZoVuuaztXTIgdqJoZ6yN-64" target="ZoVuuaztXTIgdqJoZ6yN-1" edge="1">
          <mxGeometry relative="1" as="geometry">
            <mxPoint x="230" y="230" as="sourcePoint" />
            <mxPoint x="390" y="230" as="targetPoint" />
          </mxGeometry>
        </mxCell>
        <mxCell id="ZoVuuaztXTIgdqJoZ6yN-70" value="" style="endArrow=none;html=1;rounded=0;exitX=1;exitY=0.5;exitDx=0;exitDy=0;entryX=0;entryY=0;entryDx=0;entryDy=0;" parent="1" source="ZoVuuaztXTIgdqJoZ6yN-66" target="ZoVuuaztXTIgdqJoZ6yN-1" edge="1">
          <mxGeometry relative="1" as="geometry">
            <mxPoint x="131" y="104" as="sourcePoint" />
            <mxPoint x="155" y="170" as="targetPoint" />
          </mxGeometry>
        </mxCell>
        <mxCell id="ZoVuuaztXTIgdqJoZ6yN-71" value="" style="endArrow=none;html=1;rounded=0;exitX=1;exitY=0.5;exitDx=0;exitDy=0;entryX=0;entryY=0.5;entryDx=0;entryDy=0;" parent="1" source="ZoVuuaztXTIgdqJoZ6yN-67" target="ZoVuuaztXTIgdqJoZ6yN-1" edge="1">
          <mxGeometry relative="1" as="geometry">
            <mxPoint x="90" y="140" as="sourcePoint" />
            <mxPoint x="130" y="170" as="targetPoint" />
          </mxGeometry>
        </mxCell>
        <mxCell id="ZoVuuaztXTIgdqJoZ6yN-72" value="" style="endArrow=none;html=1;rounded=0;exitX=1;exitY=0;exitDx=0;exitDy=0;entryX=0;entryY=1;entryDx=0;entryDy=0;" parent="1" source="ZoVuuaztXTIgdqJoZ6yN-68" target="ZoVuuaztXTIgdqJoZ6yN-1" edge="1">
          <mxGeometry relative="1" as="geometry">
            <mxPoint x="80" y="200" as="sourcePoint" />
            <mxPoint x="130" y="190" as="targetPoint" />
          </mxGeometry>
        </mxCell>
        <mxCell id="ZoVuuaztXTIgdqJoZ6yN-73" value="Id" style="ellipse;whiteSpace=wrap;html=1;align=center;fontStyle=4;fillColor=#dae8fc;strokeColor=#6c8ebf;" parent="1" vertex="1">
          <mxGeometry x="10" y="390" width="100" height="40" as="geometry" />
        </mxCell>
        <mxCell id="ZoVuuaztXTIgdqJoZ6yN-74" value="" style="endArrow=none;html=1;rounded=0;exitX=1;exitY=1;exitDx=0;exitDy=0;entryX=0;entryY=0;entryDx=0;entryDy=0;" parent="1" source="ZoVuuaztXTIgdqJoZ6yN-73" target="ZoVuuaztXTIgdqJoZ6yN-11" edge="1">
          <mxGeometry relative="1" as="geometry">
            <mxPoint x="230" y="300" as="sourcePoint" />
            <mxPoint x="390" y="300" as="targetPoint" />
          </mxGeometry>
        </mxCell>
        <mxCell id="ZoVuuaztXTIgdqJoZ6yN-75" value="Phones" style="ellipse;whiteSpace=wrap;html=1;align=center;fillColor=#dae8fc;strokeColor=#6c8ebf;" parent="1" vertex="1">
          <mxGeometry x="-10" y="445" width="100" height="40" as="geometry" />
        </mxCell>
        <mxCell id="ZoVuuaztXTIgdqJoZ6yN-76" value="" style="endArrow=none;html=1;rounded=0;exitX=1;exitY=0.5;exitDx=0;exitDy=0;entryX=0;entryY=0.25;entryDx=0;entryDy=0;" parent="1" source="ZoVuuaztXTIgdqJoZ6yN-75" target="ZoVuuaztXTIgdqJoZ6yN-11" edge="1">
          <mxGeometry relative="1" as="geometry">
            <mxPoint x="105" y="434" as="sourcePoint" />
            <mxPoint x="130" y="490" as="targetPoint" />
          </mxGeometry>
        </mxCell>
        <mxCell id="ZoVuuaztXTIgdqJoZ6yN-77" value="Addresses" style="ellipse;whiteSpace=wrap;html=1;align=center;fillColor=#dae8fc;strokeColor=#6c8ebf;" parent="1" vertex="1">
          <mxGeometry y="260" width="100" height="40" as="geometry" />
        </mxCell>
        <mxCell id="ZoVuuaztXTIgdqJoZ6yN-78" value="" style="endArrow=none;html=1;rounded=0;exitX=1;exitY=0;exitDx=0;exitDy=0;" parent="1" source="ZoVuuaztXTIgdqJoZ6yN-77" edge="1">
          <mxGeometry relative="1" as="geometry">
            <mxPoint x="75" y="226" as="sourcePoint" />
            <mxPoint x="134" y="200" as="targetPoint" />
          </mxGeometry>
        </mxCell>
        <mxCell id="ZoVuuaztXTIgdqJoZ6yN-79" value="Addresses" style="ellipse;whiteSpace=wrap;html=1;align=center;fillColor=#dae8fc;strokeColor=#6c8ebf;" parent="1" vertex="1">
          <mxGeometry x="-10" y="500" width="100" height="40" as="geometry" />
        </mxCell>
        <mxCell id="ZoVuuaztXTIgdqJoZ6yN-80" value="" style="endArrow=none;html=1;rounded=0;exitX=1;exitY=0;exitDx=0;exitDy=0;" parent="1" source="ZoVuuaztXTIgdqJoZ6yN-79" edge="1">
          <mxGeometry relative="1" as="geometry">
            <mxPoint x="100" y="475" as="sourcePoint" />
            <mxPoint x="120" y="500" as="targetPoint" />
          </mxGeometry>
        </mxCell>
        <mxCell id="ZoVuuaztXTIgdqJoZ6yN-81" value="Name" style="ellipse;whiteSpace=wrap;html=1;align=center;fillColor=#dae8fc;strokeColor=#6c8ebf;" parent="1" vertex="1">
          <mxGeometry x="10" y="550" width="100" height="40" as="geometry" />
        </mxCell>
        <mxCell id="ZoVuuaztXTIgdqJoZ6yN-82" value="" style="endArrow=none;html=1;rounded=0;exitX=0.721;exitY=0.069;exitDx=0;exitDy=0;entryX=0;entryY=1;entryDx=0;entryDy=0;exitPerimeter=0;" parent="1" source="ZoVuuaztXTIgdqJoZ6yN-81" target="ZoVuuaztXTIgdqJoZ6yN-11" edge="1">
          <mxGeometry relative="1" as="geometry">
            <mxPoint x="85" y="516" as="sourcePoint" />
            <mxPoint x="130" y="510" as="targetPoint" />
          </mxGeometry>
        </mxCell>
        <mxCell id="ZoVuuaztXTIgdqJoZ6yN-83" value="Email" style="ellipse;whiteSpace=wrap;html=1;align=center;fillColor=#dae8fc;strokeColor=#6c8ebf;" parent="1" vertex="1">
          <mxGeometry x="120" y="560" width="100" height="40" as="geometry" />
        </mxCell>
        <mxCell id="ZoVuuaztXTIgdqJoZ6yN-84" value="" style="endArrow=none;html=1;rounded=0;exitX=0.25;exitY=1;exitDx=0;exitDy=0;entryX=0.396;entryY=0.011;entryDx=0;entryDy=0;entryPerimeter=0;" parent="1" source="ZoVuuaztXTIgdqJoZ6yN-11" target="ZoVuuaztXTIgdqJoZ6yN-83" edge="1">
          <mxGeometry relative="1" as="geometry">
            <mxPoint x="230" y="450" as="sourcePoint" />
            <mxPoint x="390" y="450" as="targetPoint" />
          </mxGeometry>
        </mxCell>
        <mxCell id="ZoVuuaztXTIgdqJoZ6yN-91" value="Id" style="ellipse;whiteSpace=wrap;html=1;align=center;fontStyle=4;fillColor=#dae8fc;strokeColor=#6c8ebf;" parent="1" vertex="1">
          <mxGeometry x="470" y="-170" width="100" height="40" as="geometry" />
        </mxCell>
        <mxCell id="ZoVuuaztXTIgdqJoZ6yN-92" value="Amount" style="ellipse;whiteSpace=wrap;html=1;align=center;fillColor=#dae8fc;strokeColor=#6c8ebf;" parent="1" vertex="1">
          <mxGeometry x="525" y="-220" width="100" height="40" as="geometry" />
        </mxCell>
        <mxCell id="ZoVuuaztXTIgdqJoZ6yN-93" value="Date" style="ellipse;whiteSpace=wrap;html=1;align=center;fillColor=#dae8fc;strokeColor=#6c8ebf;" parent="1" vertex="1">
          <mxGeometry x="625" y="-200" width="100" height="40" as="geometry" />
        </mxCell>
        <mxCell id="ZoVuuaztXTIgdqJoZ6yN-94" value="Time" style="ellipse;whiteSpace=wrap;html=1;align=center;fillColor=#dae8fc;strokeColor=#6c8ebf;" parent="1" vertex="1">
          <mxGeometry x="710" y="-170" width="100" height="40" as="geometry" />
        </mxCell>
        <mxCell id="ZoVuuaztXTIgdqJoZ6yN-95" value="" style="endArrow=none;html=1;rounded=0;exitX=1;exitY=1;exitDx=0;exitDy=0;entryX=0;entryY=0;entryDx=0;entryDy=0;" parent="1" source="ZoVuuaztXTIgdqJoZ6yN-91" target="ZoVuuaztXTIgdqJoZ6yN-27" edge="1">
          <mxGeometry relative="1" as="geometry">
            <mxPoint x="640" y="10" as="sourcePoint" />
            <mxPoint x="800" y="10" as="targetPoint" />
          </mxGeometry>
        </mxCell>
        <mxCell id="ZoVuuaztXTIgdqJoZ6yN-96" value="" style="endArrow=none;html=1;rounded=0;exitX=0.631;exitY=0.963;exitDx=0;exitDy=0;entryX=0.443;entryY=0.024;entryDx=0;entryDy=0;entryPerimeter=0;exitPerimeter=0;" parent="1" source="ZoVuuaztXTIgdqJoZ6yN-92" target="ZoVuuaztXTIgdqJoZ6yN-27" edge="1">
          <mxGeometry relative="1" as="geometry">
            <mxPoint x="565" y="-126" as="sourcePoint" />
            <mxPoint x="600" y="-80" as="targetPoint" />
          </mxGeometry>
        </mxCell>
        <mxCell id="ZoVuuaztXTIgdqJoZ6yN-97" value="" style="endArrow=none;html=1;rounded=0;exitX=0.5;exitY=1;exitDx=0;exitDy=0;entryX=0.633;entryY=0.009;entryDx=0;entryDy=0;entryPerimeter=0;" parent="1" source="ZoVuuaztXTIgdqJoZ6yN-93" target="ZoVuuaztXTIgdqJoZ6yN-27" edge="1">
          <mxGeometry relative="1" as="geometry">
            <mxPoint x="585" y="-170" as="sourcePoint" />
            <mxPoint x="618" y="-81" as="targetPoint" />
          </mxGeometry>
        </mxCell>
        <mxCell id="ZoVuuaztXTIgdqJoZ6yN-98" value="" style="endArrow=none;html=1;rounded=0;exitX=0.082;exitY=0.71;exitDx=0;exitDy=0;entryX=0.822;entryY=0.024;entryDx=0;entryDy=0;entryPerimeter=0;exitPerimeter=0;" parent="1" source="ZoVuuaztXTIgdqJoZ6yN-94" target="ZoVuuaztXTIgdqJoZ6yN-27" edge="1">
          <mxGeometry relative="1" as="geometry">
            <mxPoint x="650" y="-156" as="sourcePoint" />
            <mxPoint x="638" y="-81" as="targetPoint" />
          </mxGeometry>
        </mxCell>
        <mxCell id="ZoVuuaztXTIgdqJoZ6yN-101" value="Id" style="ellipse;whiteSpace=wrap;html=1;align=center;fontStyle=4;fillColor=#dae8fc;strokeColor=#6c8ebf;" parent="1" vertex="1">
          <mxGeometry x="480" y="560" width="100" height="40" as="geometry" />
        </mxCell>
        <mxCell id="ZoVuuaztXTIgdqJoZ6yN-102" value="Period" style="ellipse;whiteSpace=wrap;html=1;align=center;fillColor=#dae8fc;strokeColor=#6c8ebf;" parent="1" vertex="1">
          <mxGeometry x="570" y="590" width="100" height="40" as="geometry" />
        </mxCell>
        <mxCell id="ZoVuuaztXTIgdqJoZ6yN-103" value="Amount" style="ellipse;whiteSpace=wrap;html=1;align=center;fillColor=#dae8fc;strokeColor=#6c8ebf;" parent="1" vertex="1">
          <mxGeometry x="670" y="570" width="100" height="40" as="geometry" />
        </mxCell>
        <mxCell id="ZoVuuaztXTIgdqJoZ6yN-104" value="Name" style="ellipse;whiteSpace=wrap;html=1;align=center;fillColor=#dae8fc;strokeColor=#6c8ebf;" parent="1" vertex="1">
          <mxGeometry x="720" y="520" width="100" height="40" as="geometry" />
        </mxCell>
        <mxCell id="ZoVuuaztXTIgdqJoZ6yN-105" value="" style="endArrow=none;html=1;rounded=0;exitX=1;exitY=0;exitDx=0;exitDy=0;entryX=0.25;entryY=1;entryDx=0;entryDy=0;" parent="1" source="ZoVuuaztXTIgdqJoZ6yN-101" target="ZoVuuaztXTIgdqJoZ6yN-19" edge="1">
          <mxGeometry relative="1" as="geometry">
            <mxPoint x="460" y="460" as="sourcePoint" />
            <mxPoint x="620" y="460" as="targetPoint" />
          </mxGeometry>
        </mxCell>
        <mxCell id="ZoVuuaztXTIgdqJoZ6yN-106" value="" style="endArrow=none;html=1;rounded=0;exitX=0.5;exitY=0;exitDx=0;exitDy=0;entryX=0.5;entryY=1;entryDx=0;entryDy=0;" parent="1" source="ZoVuuaztXTIgdqJoZ6yN-102" target="ZoVuuaztXTIgdqJoZ6yN-19" edge="1">
          <mxGeometry relative="1" as="geometry">
            <mxPoint x="540" y="570" as="sourcePoint" />
            <mxPoint x="600" y="530" as="targetPoint" />
          </mxGeometry>
        </mxCell>
        <mxCell id="ZoVuuaztXTIgdqJoZ6yN-107" value="" style="endArrow=none;html=1;rounded=0;exitX=0.239;exitY=0.098;exitDx=0;exitDy=0;entryX=0.75;entryY=1;entryDx=0;entryDy=0;exitPerimeter=0;" parent="1" source="ZoVuuaztXTIgdqJoZ6yN-103" target="ZoVuuaztXTIgdqJoZ6yN-19" edge="1">
          <mxGeometry relative="1" as="geometry">
            <mxPoint x="635" y="600" as="sourcePoint" />
            <mxPoint x="625" y="530" as="targetPoint" />
          </mxGeometry>
        </mxCell>
        <mxCell id="ZoVuuaztXTIgdqJoZ6yN-108" value="" style="endArrow=none;html=1;rounded=0;exitX=0;exitY=0.5;exitDx=0;exitDy=0;entryX=1;entryY=1;entryDx=0;entryDy=0;" parent="1" source="ZoVuuaztXTIgdqJoZ6yN-104" target="ZoVuuaztXTIgdqJoZ6yN-19" edge="1">
          <mxGeometry relative="1" as="geometry">
            <mxPoint x="724" y="604" as="sourcePoint" />
            <mxPoint x="650" y="530" as="targetPoint" />
          </mxGeometry>
        </mxCell>
        <mxCell id="ZoVuuaztXTIgdqJoZ6yN-109" value="Id" style="ellipse;whiteSpace=wrap;html=1;align=center;fontStyle=4;fillColor=#dae8fc;strokeColor=#6c8ebf;" parent="1" vertex="1">
          <mxGeometry x="740" width="100" height="40" as="geometry" />
        </mxCell>
        <mxCell id="ZoVuuaztXTIgdqJoZ6yN-110" value="Name" style="ellipse;whiteSpace=wrap;html=1;align=center;fillColor=#dae8fc;strokeColor=#6c8ebf;" parent="1" vertex="1">
          <mxGeometry x="740" y="50" width="100" height="40" as="geometry" />
        </mxCell>
        <mxCell id="ZoVuuaztXTIgdqJoZ6yN-113" value="Age" style="ellipse;whiteSpace=wrap;html=1;align=center;fillColor=#dae8fc;strokeColor=#6c8ebf;" parent="1" vertex="1">
          <mxGeometry x="750" y="95" width="100" height="40" as="geometry" />
        </mxCell>
        <mxCell id="ZoVuuaztXTIgdqJoZ6yN-114" value="Gender" style="ellipse;whiteSpace=wrap;html=1;align=center;fillColor=#dae8fc;strokeColor=#6c8ebf;" parent="1" vertex="1">
          <mxGeometry x="750" y="140" width="100" height="40" as="geometry" />
        </mxCell>
        <mxCell id="ZoVuuaztXTIgdqJoZ6yN-115" value="Email" style="ellipse;whiteSpace=wrap;html=1;align=center;fillColor=#dae8fc;strokeColor=#6c8ebf;" parent="1" vertex="1">
          <mxGeometry x="730" y="-50" width="100" height="40" as="geometry" />
        </mxCell>
        <mxCell id="ZoVuuaztXTIgdqJoZ6yN-116" value="Phones" style="ellipse;whiteSpace=wrap;html=1;align=center;fillColor=#dae8fc;strokeColor=#6c8ebf;" parent="1" vertex="1">
          <mxGeometry x="760" y="200" width="100" height="40" as="geometry" />
        </mxCell>
        <mxCell id="ZoVuuaztXTIgdqJoZ6yN-117" value="" style="endArrow=none;html=1;rounded=0;entryX=0;entryY=1;entryDx=0;entryDy=0;exitX=0.75;exitY=0;exitDx=0;exitDy=0;" parent="1" source="ZoVuuaztXTIgdqJoZ6yN-2" target="ZoVuuaztXTIgdqJoZ6yN-115" edge="1">
          <mxGeometry relative="1" as="geometry">
            <mxPoint x="540" y="200" as="sourcePoint" />
            <mxPoint x="700" y="200" as="targetPoint" />
          </mxGeometry>
        </mxCell>
        <mxCell id="ZoVuuaztXTIgdqJoZ6yN-118" value="" style="endArrow=none;html=1;rounded=0;entryX=0.038;entryY=0.726;entryDx=0;entryDy=0;entryPerimeter=0;exitX=0.87;exitY=0.013;exitDx=0;exitDy=0;exitPerimeter=0;" parent="1" source="ZoVuuaztXTIgdqJoZ6yN-2" target="ZoVuuaztXTIgdqJoZ6yN-109" edge="1">
          <mxGeometry relative="1" as="geometry">
            <mxPoint x="700" y="150" as="sourcePoint" />
            <mxPoint x="755" y="-6" as="targetPoint" />
          </mxGeometry>
        </mxCell>
        <mxCell id="ZoVuuaztXTIgdqJoZ6yN-119" value="" style="endArrow=none;html=1;rounded=0;exitX=1;exitY=0;exitDx=0;exitDy=0;" parent="1" source="ZoVuuaztXTIgdqJoZ6yN-2" edge="1">
          <mxGeometry relative="1" as="geometry">
            <mxPoint x="710" y="171" as="sourcePoint" />
            <mxPoint x="741" y="76" as="targetPoint" />
          </mxGeometry>
        </mxCell>
        <mxCell id="ZoVuuaztXTIgdqJoZ6yN-120" value="" style="endArrow=none;html=1;rounded=0;exitX=1;exitY=0.25;exitDx=0;exitDy=0;entryX=0;entryY=0.5;entryDx=0;entryDy=0;" parent="1" source="ZoVuuaztXTIgdqJoZ6yN-2" target="ZoVuuaztXTIgdqJoZ6yN-113" edge="1">
          <mxGeometry relative="1" as="geometry">
            <mxPoint x="700" y="170" as="sourcePoint" />
            <mxPoint x="751" y="86" as="targetPoint" />
          </mxGeometry>
        </mxCell>
        <mxCell id="ZoVuuaztXTIgdqJoZ6yN-121" value="" style="endArrow=none;html=1;rounded=0;exitX=1;exitY=0.5;exitDx=0;exitDy=0;entryX=0;entryY=0.5;entryDx=0;entryDy=0;" parent="1" source="ZoVuuaztXTIgdqJoZ6yN-2" target="ZoVuuaztXTIgdqJoZ6yN-114" edge="1">
          <mxGeometry relative="1" as="geometry">
            <mxPoint x="700" y="180" as="sourcePoint" />
            <mxPoint x="760" y="125" as="targetPoint" />
          </mxGeometry>
        </mxCell>
        <mxCell id="ZoVuuaztXTIgdqJoZ6yN-124" value="" style="endArrow=none;html=1;rounded=0;exitX=0.912;exitY=1.004;exitDx=0;exitDy=0;entryX=0.024;entryY=0.293;entryDx=0;entryDy=0;entryPerimeter=0;exitPerimeter=0;" parent="1" source="ZoVuuaztXTIgdqJoZ6yN-2" target="ZoVuuaztXTIgdqJoZ6yN-116" edge="1">
          <mxGeometry relative="1" as="geometry">
            <mxPoint x="700" y="210" as="sourcePoint" />
            <mxPoint x="803" y="256" as="targetPoint" />
          </mxGeometry>
        </mxCell>
        <mxCell id="ZoVuuaztXTIgdqJoZ6yN-125" value="Id" style="ellipse;whiteSpace=wrap;html=1;align=center;fontStyle=4;fillColor=#dae8fc;strokeColor=#6c8ebf;" parent="1" vertex="1">
          <mxGeometry x="950" y="420" width="100" height="40" as="geometry" />
        </mxCell>
        <mxCell id="ZoVuuaztXTIgdqJoZ6yN-126" value="Name" style="ellipse;whiteSpace=wrap;html=1;align=center;fillColor=#dae8fc;strokeColor=#6c8ebf;" parent="1" vertex="1">
          <mxGeometry x="970" y="465" width="100" height="40" as="geometry" />
        </mxCell>
        <mxCell id="ZoVuuaztXTIgdqJoZ6yN-127" value="" style="endArrow=none;html=1;rounded=0;entryX=0;entryY=0.5;entryDx=0;entryDy=0;exitX=1;exitY=0;exitDx=0;exitDy=0;" parent="1" source="ZoVuuaztXTIgdqJoZ6yN-57" target="ZoVuuaztXTIgdqJoZ6yN-125" edge="1">
          <mxGeometry relative="1" as="geometry">
            <mxPoint x="540" y="460" as="sourcePoint" />
            <mxPoint x="700" y="460" as="targetPoint" />
          </mxGeometry>
        </mxCell>
        <mxCell id="ZoVuuaztXTIgdqJoZ6yN-128" value="" style="endArrow=none;html=1;rounded=0;entryX=0;entryY=0.5;entryDx=0;entryDy=0;exitX=1;exitY=0.5;exitDx=0;exitDy=0;" parent="1" source="ZoVuuaztXTIgdqJoZ6yN-57" target="ZoVuuaztXTIgdqJoZ6yN-126" edge="1">
          <mxGeometry relative="1" as="geometry">
            <mxPoint x="950" y="480" as="sourcePoint" />
            <mxPoint x="960" y="450" as="targetPoint" />
          </mxGeometry>
        </mxCell>
        <mxCell id="ZoVuuaztXTIgdqJoZ6yN-130" value="Train" style="shape=rhombus;perimeter=rhombusPerimeter;whiteSpace=wrap;html=1;align=center;fillColor=#d5e8d4;strokeColor=#82b366;" parent="1" vertex="1">
          <mxGeometry x="550" y="680" width="120" height="60" as="geometry" />
        </mxCell>
        <mxCell id="ZoVuuaztXTIgdqJoZ6yN-131" value="" style="endArrow=none;html=1;rounded=0;exitX=1;exitY=0.5;exitDx=0;exitDy=0;entryX=0;entryY=0.5;entryDx=0;entryDy=0;" parent="1" source="ZoVuuaztXTIgdqJoZ6yN-11" target="ZoVuuaztXTIgdqJoZ6yN-130" edge="1">
          <mxGeometry relative="1" as="geometry">
            <mxPoint x="540" y="550" as="sourcePoint" />
            <mxPoint x="700" y="550" as="targetPoint" />
          </mxGeometry>
        </mxCell>
        <mxCell id="ZoVuuaztXTIgdqJoZ6yN-132" value="" style="endArrow=none;html=1;rounded=0;exitX=0.75;exitY=1;exitDx=0;exitDy=0;entryX=1;entryY=0.5;entryDx=0;entryDy=0;" parent="1" source="ZoVuuaztXTIgdqJoZ6yN-57" target="ZoVuuaztXTIgdqJoZ6yN-130" edge="1">
          <mxGeometry relative="1" as="geometry">
            <mxPoint x="230" y="510" as="sourcePoint" />
            <mxPoint x="570" y="710" as="targetPoint" />
          </mxGeometry>
        </mxCell>
        <mxCell id="ZoVuuaztXTIgdqJoZ6yN-133" value="" style="endArrow=none;html=1;rounded=0;exitX=0.624;exitY=0.976;exitDx=0;exitDy=0;entryX=0.92;entryY=0.432;entryDx=0;entryDy=0;entryPerimeter=0;exitPerimeter=0;" parent="1" edge="1">
          <mxGeometry relative="1" as="geometry">
            <mxPoint x="905.3999999999996" y="510.0400000000004" as="sourcePoint" />
            <mxPoint x="663.4000000000001" y="706.9200000000001" as="targetPoint" />
          </mxGeometry>
        </mxCell>
        <mxCell id="ZoVuuaztXTIgdqJoZ6yN-134" value="" style="endArrow=none;html=1;rounded=0;exitX=1;exitY=0.25;exitDx=0;exitDy=0;entryX=0.096;entryY=0.432;entryDx=0;entryDy=0;entryPerimeter=0;" parent="1" source="ZoVuuaztXTIgdqJoZ6yN-11" edge="1">
          <mxGeometry relative="1" as="geometry">
            <mxPoint x="216" y="491" as="sourcePoint" />
            <mxPoint x="557.52" y="706.9200000000001" as="targetPoint" />
          </mxGeometry>
        </mxCell>
        <mxCell id="ZoVuuaztXTIgdqJoZ6yN-135" value="M" style="text;html=1;align=center;verticalAlign=middle;resizable=0;points=[];autosize=1;strokeColor=none;fillColor=none;" parent="1" vertex="1">
          <mxGeometry x="220" y="470" width="30" height="30" as="geometry" />
        </mxCell>
        <mxCell id="ZoVuuaztXTIgdqJoZ6yN-136" value="1" style="text;html=1;align=center;verticalAlign=middle;resizable=0;points=[];autosize=1;strokeColor=none;fillColor=none;" parent="1" vertex="1">
          <mxGeometry x="850" y="505" width="30" height="30" as="geometry" />
        </mxCell>
        <mxCell id="R63TW3gF70L7MX_yOt59-1" value="Start Date" style="ellipse;whiteSpace=wrap;html=1;align=center;fillColor=#fff2cc;strokeColor=#d6b656;" parent="1" vertex="1">
          <mxGeometry x="865" y="370" width="100" height="40" as="geometry" />
        </mxCell>
        <mxCell id="R63TW3gF70L7MX_yOt59-2" value="" style="endArrow=none;html=1;rounded=0;entryX=0;entryY=0.5;entryDx=0;entryDy=0;exitX=1;exitY=0.5;exitDx=0;exitDy=0;" parent="1" source="ZoVuuaztXTIgdqJoZ6yN-56" target="R63TW3gF70L7MX_yOt59-1" edge="1">
          <mxGeometry width="50" height="50" relative="1" as="geometry">
            <mxPoint x="590" y="390" as="sourcePoint" />
            <mxPoint x="640" y="340" as="targetPoint" />
          </mxGeometry>
        </mxCell>
        <mxCell id="Hijp1C7FUEl1i4SMCYom-1" value="IsDeleted" style="ellipse;whiteSpace=wrap;html=1;align=center;fillColor=#dae8fc;strokeColor=#6c8ebf;" parent="1" vertex="1">
          <mxGeometry y="310" width="100" height="40" as="geometry" />
        </mxCell>
        <mxCell id="Hijp1C7FUEl1i4SMCYom-2" value="" style="endArrow=none;html=1;rounded=0;exitX=0.938;exitY=0.23;exitDx=0;exitDy=0;exitPerimeter=0;entryX=0.06;entryY=-0.053;entryDx=0;entryDy=0;entryPerimeter=0;" parent="1" source="Hijp1C7FUEl1i4SMCYom-1" target="ZoVuuaztXTIgdqJoZ6yN-17" edge="1">
          <mxGeometry relative="1" as="geometry">
            <mxPoint x="95" y="276" as="sourcePoint" />
            <mxPoint x="144" y="210" as="targetPoint" />
          </mxGeometry>
        </mxCell>
        <mxCell id="Hijp1C7FUEl1i4SMCYom-5" value="IsDeleted" style="ellipse;whiteSpace=wrap;html=1;align=center;fillColor=#dae8fc;strokeColor=#6c8ebf;" parent="1" vertex="1">
          <mxGeometry x="710" y="-125" width="100" height="40" as="geometry" />
        </mxCell>
        <mxCell id="Hijp1C7FUEl1i4SMCYom-6" value="" style="endArrow=none;html=1;rounded=0;exitX=0.038;exitY=0.705;exitDx=0;exitDy=0;entryX=1;entryY=0.25;entryDx=0;entryDy=0;exitPerimeter=0;" parent="1" source="Hijp1C7FUEl1i4SMCYom-5" target="ZoVuuaztXTIgdqJoZ6yN-27" edge="1">
          <mxGeometry relative="1" as="geometry">
            <mxPoint x="728" y="-132" as="sourcePoint" />
            <mxPoint x="682" y="-79" as="targetPoint" />
          </mxGeometry>
        </mxCell>
        <mxCell id="Hijp1C7FUEl1i4SMCYom-7" value="IsDeleted" style="ellipse;whiteSpace=wrap;html=1;align=center;fillColor=#dae8fc;strokeColor=#6c8ebf;" parent="1" vertex="1">
          <mxGeometry x="750" y="260" width="100" height="40" as="geometry" />
        </mxCell>
        <mxCell id="Hijp1C7FUEl1i4SMCYom-8" value="" style="endArrow=none;html=1;rounded=0;exitX=1.013;exitY=0.14;exitDx=0;exitDy=0;entryX=0;entryY=0;entryDx=0;entryDy=0;exitPerimeter=0;" parent="1" source="ZoVuuaztXTIgdqJoZ6yN-62" target="Hijp1C7FUEl1i4SMCYom-7" edge="1">
          <mxGeometry relative="1" as="geometry">
            <mxPoint x="691" y="210" as="sourcePoint" />
            <mxPoint x="807" y="305" as="targetPoint" />
          </mxGeometry>
        </mxCell>
        <mxCell id="Hijp1C7FUEl1i4SMCYom-9" value="IsDeleted" style="ellipse;whiteSpace=wrap;html=1;align=center;fillColor=#dae8fc;strokeColor=#6c8ebf;" parent="1" vertex="1">
          <mxGeometry x="210" y="590" width="100" height="40" as="geometry" />
        </mxCell>
        <mxCell id="Hijp1C7FUEl1i4SMCYom-10" value="" style="endArrow=none;html=1;rounded=0;exitX=0.75;exitY=1;exitDx=0;exitDy=0;entryX=0.382;entryY=0.07;entryDx=0;entryDy=0;entryPerimeter=0;" parent="1" source="ZoVuuaztXTIgdqJoZ6yN-11" target="Hijp1C7FUEl1i4SMCYom-9" edge="1">
          <mxGeometry relative="1" as="geometry">
            <mxPoint x="155" y="530" as="sourcePoint" />
            <mxPoint x="170" y="570" as="targetPoint" />
          </mxGeometry>
        </mxCell>
        <mxCell id="US2cVaJNOSq0x_Emo_KT-1" value="End Date" style="ellipse;whiteSpace=wrap;html=1;align=center;fillColor=#fff2cc;strokeColor=#d6b656;" parent="1" vertex="1">
          <mxGeometry x="820" y="410" width="100" height="40" as="geometry" />
        </mxCell>
        <mxCell id="US2cVaJNOSq0x_Emo_KT-2" value="" style="endArrow=none;html=1;rounded=0;exitX=1;exitY=1;exitDx=0;exitDy=0;entryX=0;entryY=0.5;entryDx=0;entryDy=0;" parent="1" source="ZoVuuaztXTIgdqJoZ6yN-56" target="US2cVaJNOSq0x_Emo_KT-1" edge="1">
          <mxGeometry relative="1" as="geometry">
            <mxPoint x="770" y="440" as="sourcePoint" />
            <mxPoint x="850" y="480" as="targetPoint" />
          </mxGeometry>
        </mxCell>
        <mxCell id="e-rWuLLXfOyXhhiVN8RU-1" value="IsDeleted" style="ellipse;whiteSpace=wrap;html=1;align=center;fillColor=#dae8fc;strokeColor=#6c8ebf;" parent="1" vertex="1">
          <mxGeometry x="451" y="510" width="100" height="40" as="geometry" />
        </mxCell>
        <mxCell id="e-rWuLLXfOyXhhiVN8RU-2" value="" style="endArrow=none;html=1;rounded=0;exitX=1;exitY=0.5;exitDx=0;exitDy=0;entryX=0;entryY=0.75;entryDx=0;entryDy=0;" parent="1" source="e-rWuLLXfOyXhhiVN8RU-1" target="ZoVuuaztXTIgdqJoZ6yN-19" edge="1">
          <mxGeometry relative="1" as="geometry">
            <mxPoint x="575" y="576" as="sourcePoint" />
            <mxPoint x="625" y="530" as="targetPoint" />
          </mxGeometry>
        </mxCell>
        <mxCell id="e-rWuLLXfOyXhhiVN8RU-3" value="Description" style="ellipse;whiteSpace=wrap;html=1;align=center;fillColor=#dae8fc;strokeColor=#6c8ebf;" parent="1" vertex="1">
          <mxGeometry x="960" y="520" width="100" height="40" as="geometry" />
        </mxCell>
        <mxCell id="e-rWuLLXfOyXhhiVN8RU-4" value="" style="endArrow=none;html=1;rounded=0;entryX=0.26;entryY=0.01;entryDx=0;entryDy=0;exitX=1;exitY=1;exitDx=0;exitDy=0;entryPerimeter=0;" parent="1" source="ZoVuuaztXTIgdqJoZ6yN-57" target="e-rWuLLXfOyXhhiVN8RU-3" edge="1">
          <mxGeometry relative="1" as="geometry">
            <mxPoint x="950" y="500" as="sourcePoint" />
            <mxPoint x="980" y="520" as="targetPoint" />
          </mxGeometry>
        </mxCell>
        <mxCell id="VeFdf09x9eTNN83gW06B-1" value="Salary" style="ellipse;whiteSpace=wrap;html=1;align=center;fillColor=#dae8fc;strokeColor=#6c8ebf;" parent="1" vertex="1">
          <mxGeometry x="930" y="580" width="100" height="40" as="geometry" />
        </mxCell>
        <mxCell id="VeFdf09x9eTNN83gW06B-2" value="" style="endArrow=none;html=1;rounded=0;entryX=0.5;entryY=0;entryDx=0;entryDy=0;exitX=0.88;exitY=0.95;exitDx=0;exitDy=0;exitPerimeter=0;" parent="1" source="ZoVuuaztXTIgdqJoZ6yN-57" target="VeFdf09x9eTNN83gW06B-1" edge="1">
          <mxGeometry relative="1" as="geometry">
            <mxPoint x="950" y="520" as="sourcePoint" />
            <mxPoint x="996" y="530" as="targetPoint" />
          </mxGeometry>
        </mxCell>
        <mxCell id="QRFnCa1lAn9QRBTdRrrm-1" value="IsDeleted" style="ellipse;whiteSpace=wrap;html=1;align=center;fillColor=#dae8fc;strokeColor=#6c8ebf;" parent="1" vertex="1">
          <mxGeometry x="850" y="550" width="100" height="40" as="geometry" />
        </mxCell>
        <mxCell id="QRFnCa1lAn9QRBTdRrrm-2" value="" style="endArrow=none;html=1;rounded=0;exitX=0.824;exitY=1.07;exitDx=0;exitDy=0;exitPerimeter=0;" parent="1" source="ZoVuuaztXTIgdqJoZ6yN-57" target="QRFnCa1lAn9QRBTdRrrm-1" edge="1">
          <mxGeometry relative="1" as="geometry">
            <mxPoint x="938" y="518" as="sourcePoint" />
            <mxPoint x="990" y="590" as="targetPoint" />
          </mxGeometry>
        </mxCell>
        <mxCell id="UfOg4zOZTptHr9kMUUE--1" value="UserDeleted" style="ellipse;whiteSpace=wrap;html=1;align=center;fillColor=#dae8fc;strokeColor=#6c8ebf;" vertex="1" parent="1">
          <mxGeometry x="720" y="470" width="100" height="40" as="geometry" />
        </mxCell>
        <mxCell id="UfOg4zOZTptHr9kMUUE--2" value="" style="endArrow=none;html=1;rounded=0;exitX=0;exitY=0.5;exitDx=0;exitDy=0;entryX=1;entryY=0.25;entryDx=0;entryDy=0;" edge="1" parent="1" source="UfOg4zOZTptHr9kMUUE--1" target="ZoVuuaztXTIgdqJoZ6yN-19">
          <mxGeometry relative="1" as="geometry">
            <mxPoint x="704" y="584" as="sourcePoint" />
            <mxPoint x="675" y="530" as="targetPoint" />
          </mxGeometry>
        </mxCell>
      </root>
    </mxGraphModel>
  </diagram>
</mxfile>
